{
  "accessors": [
    {
      "bufferView": 2,
      "componentType": 5126,
      "count": 4,
      "max": [
        1.2095750570297241,
        0.8791880011558533,
        7.6961140632629395
      ],
      "min": [
        0.2270829975605011,
        0.8791880011558533,
        7.509801864624023
      ],
      "type": "VEC3"
    },
    {
      "bufferView": 2,
      "byteOffset": 48,
      "componentType": 5126,
      "count": 4,
      "max": [
        0.0,
        1.0,
        0.0
      ],
      "min": [
        0.0,
        1.0,
        0.0
      ],
      "type": "VEC3"
    },
    {
      "bufferView": 1,
      "componentType": 5126,
      "count": 4,
      "max": [
        0.0,
        0.0
      ],
      "min": [
        0.0,
        0.0
      ],
      "type": "VEC2"
    },
    {
      "bufferView": 0,
      "componentType": 5125,
      "count": 6,
      "type": "SCALAR"
    },
    {
      "bufferView": 2,
      "byteOffset": 96,
      "componentType": 5126,
      "count": 4,
      "max": [
        -0.2270829975605011,
        0.8791880011558533,
        7.6961140632629395
      ],
      "min": [
        -1.2095750570297241,
        0.8791880011558533,
        7.509801864624023
      ],
      "type": "VEC3"
    },
    {
      "bufferView": 2,
      "byteOffset": 144,
      "componentType": 5126,
      "count": 4,
      "max": [
        0.0,
        1.0,
        0.0
      ],
      "min": [
        0.0,
        1.0,
        0.0
      ],
      "type": "VEC3"
    },
    {
      "bufferView": 1,
      "byteOffset": 32,
      "componentType": 5126,
      "count": 4,
      "max": [
        0.0,
        0.0
      ],
      "min": [
        0.0,
        0.0
      ],
      "type": "VEC2"
    },
    {
      "bufferView": 0,
      "byteOffset": 24,
      "componentType": 5125,
      "count": 6,
      "type": "SCALAR"
    },
    {
      "bufferView": 2,
      "byteOffset": 192,
      "componentType": 5126,
      "count": 2350,
      "max": [
        1.7552109956741333,
        1.9069819450378418,
        7.710855007171631
      ],
      "min": [
        -1.7552109956741333,
        -1.9069819450378418,
        1.719552993774414
      ],
      "type": "VEC3"
    },
    {
      "bufferView": 2,
      "byteOffset": 28392,
      "componentType": 5126,
      "count": 2350,
      "max": [
        1.0,
        1.0,
        1.0
      ],
      "min": [
        -1.0,
        -1.0,
        -1.0
      ],
      "type": "VEC3"
    },
    {
      "bufferView": 3,
      "componentType": 5126,
      "count": 2350,
      "max": [
        1.0,
        1.0,
        1.0,
        1.0
      ],
      "min": [
        -1.0,
        -1.0,
        -1.0,
        -1.0
      ],
      "type": "VEC4"
    },
    {
      "bufferView": 1,
      "byteOffset": 64,
      "componentType": 5126,
      "count": 2350,
      "max": [
        0.9972540140151978,
        0.9956600069999695
      ],
      "min": [
        0.00468500005081296,
        0.010684000328183174
      ],
      "type": "VEC2"
    },
    {
      "bufferView": 0,
      "byteOffset": 48,
      "componentType": 5125,
      "count": 6258,
      "type": "SCALAR"
    },
    {
      "bufferView": 2,
      "byteOffset": 56592,
      "componentType": 5126,
      "count": 3850,
      "max": [
        2.9510209560394287,
        1.544505000114441,
        7.811427116394043
      ],
      "min": [
        0.1382800042629242,
        -3.345860004425049,
        0.5048459768295288
      ],
      "type": "VEC3"
    },
    {
      "bufferView": 2,
      "byteOffset": 102792,
      "componentType": 5126,
      "count": 3850,
      "max": [
        1.0,
        1.0,
        1.0
      ],
      "min": [
        -1.0,
        -1.0,
        -1.0
      ],
      "type": "VEC3"
    },
    {
      "bufferView": 3,
      "byteOffset": 37600,
      "componentType": 5126,
      "count": 3850,
      "max": [
        1.0,
        0.9999956488609314,
        1.0,
        1.0
      ],
      "min": [
        -1.0,
        -0.9999970197677612,
        -0.9999998807907104,
        -1.0
      ],
      "type": "VEC4"
    },
    {
      "bufferView": 1,
      "byteOffset": 18864,
      "componentType": 5126,
      "count": 3850,
      "max": [
        0.8376560211181641,
        0.9369210004806519
      ],
      "min": [
        0.056154001504182816,
        0.007406000047922134
      ],
      "type": "VEC2"
    },
    {
      "bufferView": 0,
      "byteOffset": 25080,
      "componentType": 5125,
      "count": 15732,
      "type": "SCALAR"
    },
    {
      "bufferView": 2,
      "byteOffset": 148992,
      "componentType": 5126,
      "count": 15965,
      "max": [
        3.2084920406341553,
        2.2648110389709473,
        7.850025177001953
      ],
      "min": [
        0.06270699948072433,
        -3.350364923477173,
        0.0
      ],
      "type": "VEC3"
    },
    {
      "bufferView": 2,
      "byteOffset": 340572,
      "componentType": 5126,
      "count": 15965,
      "max": [
        1.0,
        1.0,
        1.0
      ],
      "min": [
        -1.0,
        -1.0,
        -1.0
      ],
      "type": "VEC3"
    },
    {
      "bufferView": 3,
      "byteOffset": 99200,
      "componentType": 5126,
      "count": 15965,
      "max": [
        1.0,
        1.0,
        1.0,
        1.0
      ],
      "min": [
        -1.0,
        -1.0,
        -1.0,
        -1.0
      ],
      "type": "VEC4"
    },
    {
      "bufferView": 1,
      "byteOffset": 49664,
      "componentType": 5126,
      "count": 15965,
      "max": [
        0.9985299706459045,
        0.999625027179718
      ],
      "min": [
        -0.0004030000127386302,
        0.0017460000235587358
      ],
      "type": "VEC2"
    },
    {
      "bufferView": 0,
      "byteOffset": 88008,
      "componentType": 5125,
      "count": 25299,
      "type": "SCALAR"
    },
    {
      "bufferView": 2,
      "byteOffset": 532152,
      "componentType": 5126,
      "count": 9920,
      "max": [
        3.2084920406341553,
        2.2648110389709473,
        7.850025177001953
      ],
      "min": [
        0.03534200042486191,
        -3.6692819595336914,
        0.0
      ],
      "type": "VEC3"
    },
    {
      "bufferView": 2,
      "byteOffset": 651192,
      "componentType": 5126,
      "count": 9920,
      "max": [
        1.0,
        1.0,
        1.0
      ],
      "min": [
        -1.0,
        -1.0,
        -1.0
      ],
      "type": "VEC3"
    },
    {
      "bufferView": 3,
      "byteOffset": 354640,
      "componentType": 5126,
      "count": 9920,
      "max": [
        1.0,
        1.0,
        1.0,
        1.0
      ],
      "min": [
        -1.0,
        -1.0,
        -1.0,
        -1.0
      ],
      "type": "VEC4"
    },
    {
      "bufferView": 1,
      "byteOffset": 177384,
      "componentType": 5126,
      "count": 9920,
      "max": [
        0.9726660251617432,
        0.9929050207138062
      ],
      "min": [
        8.499999967170879e-05,
        0.0017460000235587358
      ],
      "type": "VEC2"
    },
    {
      "bufferView": 0,
      "byteOffset": 189204,
      "componentType": 5125,
      "count": 26712,
      "type": "SCALAR"
    },
    {
      "bufferView": 2,
      "byteOffset": 770232,
      "componentType": 5126,
      "count": 2840,
      "max": [
        3.0561439990997314,
        2.2065649032592773,
        7.569771766662598
      ],
      "min": [
        0.24171599745750427,
        -3.345860004425049,
        0.11896999925374985
      ],
      "type": "VEC3"
    },
    {
      "bufferView": 2,
      "byteOffset": 804312,
      "componentType": 5126,
      "count": 2840,
      "max": [
        1.0,
        1.0,
        1.0
      ],
      "min": [
        -1.0,
        -1.0,
        -1.0
      ],
      "type": "VEC3"
    },
    {
      "bufferView": 3,
      "byteOffset": 513360,
      "componentType": 5126,
      "count": 2840,
      "max": [
        1.0,
        1.0,
        1.0,
        1.0
      ],
      "min": [
        -1.0,
        -1.0,
        -1.0,
        -1.0
      ],
      "type": "VEC4"
    },
    {
      "bufferView": 1,
      "byteOffset": 256744,
      "componentType": 5126,
      "count": 2840,
      "max": [
        0.999144971370697,
        0.9925730228424072
      ],
      "min": [
        0.003930000122636557,
        0.005257999990135431
      ],
      "type": "VEC2"
    },
    {
      "bufferView": 0,
      "byteOffset": 296052,
      "componentType": 5125,
      "count": 7704,
      "type": "SCALAR"
    },
    {
      "bufferView": 2,
      "byteOffset": 838392,
      "componentType": 5126,
      "count": 3846,
      "max": [
        -0.1382800042629242,
        1.544505000114441,
        7.811427116394043
      ],
      "min": [
        -2.9510209560394287,
        -3.345860004425049,
        0.5048459768295288
      ],
      "type": "VEC3"
    },
    {
      "bufferView": 2,
      "byteOffset": 884544,
      "componentType": 5126,
      "count": 3846,
      "max": [
        1.0,
        1.0,
        1.0
      ],
      "min": [
        -1.0,
        -1.0,
        -1.0
      ],
      "type": "VEC3"
    },
    {
      "bufferView": 3,
      "byteOffset": 558800,
      "componentType": 5126,
      "count": 3846,
      "max": [
        1.0,
        0.9999956488609314,
        1.0,
        1.0
      ],
      "min": [
        -1.0,
        -0.9999970197677612,
        -0.9999998807907104,
        -1.0
      ],
      "type": "VEC4"
    },
    {
      "bufferView": 1,
      "byteOffset": 279464,
      "componentType": 5126,
      "count": 3846,
      "max": [
        0.8376560211181641,
        0.9369210004806519
      ],
      "min": [
        0.056154001504182816,
        0.007406000047922134
      ],
      "type": "VEC2"
    },
    {
      "bufferView": 0,
      "byteOffset": 326868,
      "componentType": 5125,
      "count": 15726,
      "type": "SCALAR"
    },
    {
      "bufferView": 2,
      "byteOffset": 930696,
      "componentType": 5126,
      "count": 15846,
      "max": [
        -0.0890130028128624,
        2.2648110389709473,
        7.850025177001953
      ],
      "min": [
        -3.2084920406341553,
        -3.350364923477173,
        0.0
      ],
      "type": "VEC3"
    },
    {
      "bufferView": 2,
      "byteOffset": 1120848,
      "componentType": 5126,
      "count": 15846,
      "max": [
        1.0,
        1.0,
        1.0
      ],
      "min": [
        -1.0,
        -1.0,
        -1.0
      ],
      "type": "VEC3"
    },
    {
      "bufferView": 3,
      "byteOffset": 620336,
      "componentType": 5126,
      "count": 15846,
      "max": [
        1.0,
        1.0,
        1.0,
        1.0
      ],
      "min": [
        -1.0,
        -1.0,
        -1.0,
        -1.0
      ],
      "type": "VEC4"
    },
    {
      "bufferView": 1,
      "byteOffset": 310232,
      "componentType": 5126,
      "count": 15846,
      "max": [
        0.9985299706459045,
        0.999625027179718
      ],
      "min": [
        -0.0004030000127386302,
        0.0017460000235587358
      ],
      "type": "VEC2"
    },
    {
      "bufferView": 0,
      "byteOffset": 389772,
      "componentType": 5125,
      "count": 25305,
      "type": "SCALAR"
    },
    {
      "bufferView": 2,
      "byteOffset": 1311000,
      "componentType": 5126,
      "count": 9905,
      "max": [
        -0.03534200042486191,
        2.2648110389709473,
        7.850025177001953
      ],
      "min": [
        -3.2084920406341553,
        -3.6692819595336914,
        0.0
      ],
      "type": "VEC3"
    },
    {
      "bufferView": 2,
      "byteOffset": 1429860,
      "componentType": 5126,
      "count": 9905,
      "max": [
        1.0,
        1.0,
        1.0
      ],
      "min": [
        -1.0,
        -1.0,
        -1.0
      ],
      "type": "VEC3"
    },
    {
      "bufferView": 3,
      "byteOffset": 873872,
      "componentType": 5126,
      "count": 9905,
      "max": [
        1.0,
        1.0,
        1.0,
        1.0
      ],
      "min": [
        -1.0,
        -1.0,
        -1.0,
        -1.0
      ],
      "type": "VEC4"
    },
    {
      "bufferView": 1,
      "byteOffset": 437000,
      "componentType": 5126,
      "count": 9905,
      "max": [
        0.9726660251617432,
        0.9929050207138062
      ],
      "min": [
        8.499999967170879e-05,
        0.0017460000235587358
      ],
      "type": "VEC2"
    },
    {
      "bufferView": 0,
      "byteOffset": 490992,
      "componentType": 5125,
      "count": 26712,
      "type": "SCALAR"
    },
    {
      "bufferView": 2,
      "byteOffset": 1548720,
      "componentType": 5126,
      "count": 2840,
      "max": [
        -0.24171599745750427,
        2.2065649032592773,
        7.569771766662598
      ],
      "min": [
        -3.0561439990997314,
        -3.345860004425049,
        0.11896999925374985
      ],
      "type": "VEC3"
    },
    {
      "bufferView": 2,
      "byteOffset": 1582800,
      "componentType": 5126,
      "count": 2840,
      "max": [
        1.0,
        1.0,
        1.0
      ],
      "min": [
        -1.0,
        -1.0,
        -1.0
      ],
      "type": "VEC3"
    },
    {
      "bufferView": 3,
      "byteOffset": 1032352,
      "componentType": 5126,
      "count": 2840,
      "max": [
        1.0,
        1.0,
        1.0,
        1.0
      ],
      "min": [
        -1.0,
        -1.0,
        -1.0,
        -1.0
      ],
      "type": "VEC4"
    },
    {
      "bufferView": 1,
      "byteOffset": 516240,
      "componentType": 5126,
      "count": 2840,
      "max": [
        0.999144971370697,
        0.9925730228424072
      ],
      "min": [
        0.003930000122636557,
        0.005257999990135431
      ],
      "type": "VEC2"
    },
    {
      "bufferView": 0,
      "byteOffset": 597840,
      "componentType": 5125,
      "count": 7704,
      "type": "SCALAR"
    }
  ],
  "asset": {
    "extras": {
      "author": "RodierGabrielle (https://sketchfab.com/RodierGabrielle)",
      "license": "CC-BY-4.0 (http://creativecommons.org/licenses/by/4.0/)",
      "source": "https://sketchfab.com/3d-models/wall-e-9e4ceeb86ce840dea926441ca40e8cc1",
      "title": "Wall E"
    },
    "generator": "Sketchfab-12.65.0",
    "version": "2.0"
  },
  "bufferViews": [
    {
      "buffer": 0,
      "byteLength": 628656,
      "name": "floatBufferViews",
      "target": 34963
    },
    {
      "buffer": 0,
      "byteLength": 538960,
      "byteOffset": 628656,
      "byteStride": 8,
      "name": "floatBufferViews",
      "target": 34962
    },
    {
      "buffer": 0,
      "byteLength": 1616880,
      "byteOffset": 1167616,
      "byteStride": 12,
      "name": "floatBufferViews",
      "target": 34962
    },
    {
      "buffer": 0,
      "byteLength": 1077792,
      "byteOffset": 2784496,
      "byteStride": 16,
      "name": "floatBufferViews",
      "target": 34962
    }
  ],
  "buffers": [
    {
      "byteLength": 3862288,
      "uri": "scene.bin"
    }
  ],
  "images": [
    {
      "uri": "textures/initialShadingGroup_baseColor.png"
    },
    {
      "uri": "textures/initialShadingGroup_metallicRoughness.png"
    },
    {
      "uri": "textures/initialShadingGroup_normal.png"
    },
    {
      "uri": "textures/lambert2SG_baseColor.png"
    },
    {
      "uri": "textures/lambert2SG_metallicRoughness.png"
    },
    {
      "uri": "textures/lambert2SG_normal.png"
    },
    {
      "uri": "textures/lambert3SG_baseColor.png"
    },
    {
      "uri": "textures/lambert3SG_metallicRoughness.png"
    },
    {
      "uri": "textures/lambert3SG_normal.png"
    }
  ],
  "materials": [
    {
      "doubleSided": true,
      "name": "initialShadingGroup",
      "normalTexture": {
        "index": 2
      },
      "pbrMetallicRoughness": {
        "baseColorTexture": {
          "index": 0
        },
        "metallicRoughnessTexture": {
          "index": 1
        }
      }
    },
    {
      "doubleSided": true,
      "name": "lambert2SG",
      "normalTexture": {
        "index": 5
      },
      "pbrMetallicRoughness": {
        "baseColorTexture": {
          "index": 3
        },
        "metallicRoughnessTexture": {
          "index": 4
        }
      }
    },
    {
      "doubleSided": true,
      "name": "lambert3SG",
      "normalTexture": {
        "index": 8
      },
      "pbrMetallicRoughness": {
        "baseColorTexture": {
          "index": 6
        },
        "metallicRoughnessTexture": {
          "index": 7
        }
      }
    }
  ],
  "meshes": [
    {
      "name": "Object_0",
      "primitives": [
        {
          "attributes": {
            "NORMAL": 1,
            "POSITION": 0,
            "TEXCOORD_0": 2
          },
          "indices": 3,
          "material": 1,
          "mode": 4
        }
      ]
    },
    {
      "name": "Object_1",
      "primitives": [
        {
          "attributes": {
            "NORMAL": 5,
            "POSITION": 4,
            "TEXCOORD_0": 6
          },
          "indices": 7,
          "material": 2,
          "mode": 4
        }
      ]
    },
    {
      "name": "Object_2",
      "primitives": [
        {
          "attributes": {
            "NORMAL": 9,
            "POSITION": 8,
            "TANGENT": 10,
            "TEXCOORD_0": 11
          },
          "indices": 12,
          "material": 0,
          "mode": 4
        }
      ]
    },
    {
      "name": "Object_3",
      "primitives": [
        {
          "attributes": {
            "NORMAL": 14,
            "POSITION": 13,
            "TANGENT": 15,
            "TEXCOORD_0": 16
          },
          "indices": 17,
          "material": 1,
          "mode": 4
        }
      ]
    },
    {
      "name": "Object_4",
      "primitives": [
        {
          "attributes": {
            "NORMAL": 19,
            "POSITION": 18,
            "TANGENT": 20,
            "TEXCOORD_0": 21
          },
          "indices": 22,
          "material": 1,
          "mode": 4
        }
      ]
    },
    {
      "name": "Object_5",
      "primitives": [
        {
          "attributes": {
            "NORMAL": 24,
            "POSITION": 23,
            "TANGENT": 25,
            "TEXCOORD_0": 26
          },
          "indices": 27,
          "material": 1,
          "mode": 4
        }
      ]
    },
    {
      "name": "Object_6",
      "primitives": [
        {
          "attributes": {
            "NORMAL": 29,
            "POSITION": 28,
            "TANGENT": 30,
            "TEXCOORD_0": 31
          },
          "indices": 32,
          "material": 1,
          "mode": 4
        }
      ]
    },
    {
      "name": "Object_7",
      "primitives": [
        {
          "attributes": {
            "NORMAL": 34,
            "POSITION": 33,
            "TANGENT": 35,
            "TEXCOORD_0": 36
          },
          "indices": 37,
          "material": 2,
          "mode": 4
        }
      ]
    },
    {
      "name": "Object_8",
      "primitives": [
        {
          "attributes": {
            "NORMAL": 39,
            "POSITION": 38,
            "TANGENT": 40,
            "TEXCOORD_0": 41
          },
          "indices": 42,
          "material": 2,
          "mode": 4
        }
      ]
    },
    {
      "name": "Object_9",
      "primitives": [
        {
          "attributes": {
            "NORMAL": 44,
            "POSITION": 43,
            "TANGENT": 45,
            "TEXCOORD_0": 46
          },
          "indices": 47,
          "material": 2,
          "mode": 4
        }
      ]
    },
    {
      "name": "Object_10",
      "primitives": [
        {
          "attributes": {
            "NORMAL": 49,
            "POSITION": 48,
            "TANGENT": 50,
            "TEXCOORD_0": 51
          },
          "indices": 52,
          "material": 2,
          "mode": 4
        }
      ]
    }
  ],
  "nodes": [
    {
      "children": [
        1
      ],
      "matrix": [
        1.0,
        0.0,
        0.0,
        0.0,
        0.0,
        2.220446049250313e-16,
        -1.0,
        0.0,
        0.0,
        1.0,
        2.220446049250313e-16,
        0.0,
        0.0,
        0.0,
        0.0,
        1.0
      ],
      "name": "Sketchfab_model"
    },
    {
      "children": [
        2,
        3,
        4,
        5,
        6,
        7,
        8,
        9,
        10,
        11,
        12
      ],
      "name": "Wall_E1.obj.cleaner.materialmerger.gles"
    },
    {
      "mesh": 0,
      "name": "Object_2"
    },
    {
      "mesh": 1,
      "name": "Object_3"
    },
    {
      "mesh": 2,
      "name": "Object_4"
    },
    {
      "mesh": 3,
      "name": "Object_5"
    },
    {
      "mesh": 4,
      "name": "Object_6"
    },
    {
      "mesh": 5,
      "name": "Object_7"
    },
    {
      "mesh": 6,
      "name": "Object_8"
    },
    {
      "mesh": 7,
      "name": "Object_9"
    },
    {
      "mesh": 8,
      "name": "Object_10"
    },
    {
      "mesh": 9,
      "name": "Object_11"
    },
    {
      "mesh": 10,
      "name": "Object_12"
    }
  ],
  "samplers": [
    {
      "magFilter": 9729,
      "minFilter": 9987,
      "wrapS": 10497,
      "wrapT": 10497
    }
  ],
  "scene": 0,
  "scenes": [
    {
      "name": "Sketchfab_Scene",
      "nodes": [
        0
      ]
    }
  ],
  "textures": [
    {
      "sampler": 0,
      "source": 0
    },
    {
      "sampler": 0,
      "source": 1
    },
    {
      "sampler": 0,
      "source": 2
    },
    {
      "sampler": 0,
      "source": 3
    },
    {
      "sampler": 0,
      "source": 4
    },
    {
      "sampler": 0,
      "source": 5
    },
    {
      "sampler": 0,
      "source": 6
    },
    {
      "sampler": 0,
      "source": 7
    },
    {
      "sampler": 0,
      "source": 8
    }
  ]
}
